<?xml version="1.0" encoding="utf-8"?>
<!-- Generator: Adobe Illustrator 24.2.1, SVG Export Plug-In . SVG Version: 6.00 Build 0)  -->
<svg version="1.1" id="Layer_1" xmlns="http://www.w3.org/2000/svg" xmlns:xlink="http://www.w3.org/1999/xlink" x="0px" y="0px"
	 viewBox="0 0 1000 1000" style="enable-background:new 0 0 1000 1000;" xml:space="preserve">
<style type="text/css">
	.st0{fill:#1791FF;}
</style>
<path class="st0" d="M392.5,762.6h102.6v145.3C453.7,859.8,419.5,811.3,392.5,762.6z M372.4,723.1h122.8V519.6H319
	C322.8,587.7,340.6,655.7,372.4,723.1z M495.1,235.8V88.4c-24.4,24.8-69.9,76.1-108.7,147.4H495.1z M319.1,462.4
	c-0.4,5.9-0.4,11.9-0.5,17.8h176.6V275.2H366.9C342.4,329.2,323.3,392.3,319.1,462.4z M449.1,79.4c-113,13.6-212.4,71.8-280,156.4
	h172.4C376.4,165.7,419,112.3,449.1,79.4z M279.8,459.5c4.2-68.6,21.1-130.5,43.6-184.3H141c-37.7,59.9-60.8,129.9-64.2,204.9h202.3
	C279.3,473.3,279.4,466.4,279.8,459.5z M745.2,459.5c0.4,6.9,0.5,13.8,0.7,20.6H923c-3.5-75-26.6-145-64.2-204.9H701.6
	C724.1,329.1,741,390.9,745.2,459.5z M279.6,519.6H76.8c3.4,74.5,26.2,143.9,63.4,203.6h189C299.7,655.8,283,587.9,279.6,519.6z
	 M168,762.6c68.8,86.7,170.7,146,286.6,158.4c-43.7-52.3-79.2-105.1-106.6-158.4H168z M706,519.6H534.5v203.6h118.1
	C684.4,655.7,702.2,587.7,706,519.6z M573.8,916.9c104-18.4,194.9-74.8,258-154.3H677.1C650.4,814.5,615.9,865.9,573.8,916.9z
	 M695.8,723.1h163.8c37.2-59.6,59.9-129.1,63.4-203.6H745.4C742,587.9,725.3,655.8,695.8,723.1z M830.8,235.8
	C769,158.6,680.9,103.4,580.1,84c29.8,33.2,70.1,84.9,103.6,151.9H830.8z M1000,499.9c0,276.2-223.9,500.1-500.1,500.1
	C223.7,1000-0.2,776.1-0.2,499.9C-0.2,223.7,223.7-0.3,499.9-0.3C776.1-0.3,1000,223.7,1000,499.9z M962.9,499.9
	c0-255.3-207.7-463-463-463c-255.3,0-463,207.7-463,463c0,255.3,207.7,463,463,463C755.2,962.9,962.9,755.2,962.9,499.9z
	 M534.5,93.2v142.7h104.1C602.2,168.7,559.8,119.4,534.5,93.2z M705.9,461.9c-4.3-70-23.2-132.8-47.7-186.7H534.5v204.9h171.9
	C706.3,474.1,706.2,468,705.9,461.9z M534.5,762.6v140c39.4-46.3,72-93,97.9-140H534.5z"/>
</svg>
