<?xml version="1.0" encoding="utf-8"?>
<!-- Generator: Adobe Illustrator 24.2.1, SVG Export Plug-In . SVG Version: 6.00 Build 0)  -->
<svg version="1.1" id="Layer_1" xmlns="http://www.w3.org/2000/svg" xmlns:xlink="http://www.w3.org/1999/xlink" x="0px" y="0px"
	 viewBox="0 0 964 483" style="enable-background:new 0 0 964 483;" xml:space="preserve">
<style type="text/css">
	.st0{fill:none;stroke:#FFFFFF;stroke-width:5;stroke-miterlimit:10;}
	.st1{fill:#70BBFF;}
	.st2{fill:#1791FF;}
	.st3{fill-rule:evenodd;clip-rule:evenodd;fill:#FFFFFF;stroke:#FFFFFF;stroke-width:6;stroke-miterlimit:10;}
	.st4{fill-rule:evenodd;clip-rule:evenodd;fill:#3F01B5;}
	.st5{fill-rule:evenodd;clip-rule:evenodd;fill:#FFFFFF;}
	.st6{fill-rule:evenodd;clip-rule:evenodd;fill:#1791FF;}
</style>
<line class="st0" x1="769.5" y1="157.3" x2="912.7" y2="157.4"/>
<line class="st0" x1="769.5" y1="136" x2="912.7" y2="136"/>
<line class="st0" x1="769.5" y1="178.6" x2="912.7" y2="178.7"/>
<line class="st0" x1="769.5" y1="200" x2="912.7" y2="200"/>
<line class="st0" x1="769.5" y1="221.3" x2="912.7" y2="221.3"/>
<line class="st0" x1="769.5" y1="242.6" x2="912.7" y2="242.6"/>
<path class="st1" d="M963.8,360.3l-208.6-0.1L755.3,92l208.6,0.1L963.8,360.3z M761.4,353.9l196.1,0.1l0.1-255.6l-196.1-0.1
	L761.4,353.9z M769.8,105.5l-0.1,241.9l179.5,0.1l0.1-241.9L769.8,105.5z M934.2,307l-149.3-0.1l0-5.2l149.3,0.1L934.2,307z
	 M934.2,284.7l-149.3-0.1l0-5.2l149.3,0.1L934.2,284.7z M934.2,262.5l-149.3-0.1l0-5.2l149.3,0.1L934.2,262.5z M934.2,240.3
	l-149.3-0.1l0-5.2l149.3,0.1L934.2,240.3z M934.2,218L784.9,218l0-5.2l149.3,0.1L934.2,218z M934.2,195.8l-149.3-0.1l0-5.2
	l149.3,0.1L934.2,195.8z M934.2,173.6l-149.3-0.1l0-5.2l149.3,0.1L934.2,173.6z M934.2,151.3l-149.3-0.1l0-5.2l149.3,0.1
	L934.2,151.3z"/>
<path class="st1" d="M208.8,360.3L0.2,360.2L0.3,92l208.6,0.1L208.8,360.3z M6.5,353.9l196.1,0.1l0.1-255.6L6.6,98.3L6.5,353.9z
	 M14.9,105.5l-0.1,241.9l179.5,0.1l0.1-241.9L14.9,105.5z M179.3,307l-149.3-0.1l0-5.2l149.3,0.1L179.3,307z M179.3,284.7
	l-149.3-0.1l0-5.2l149.3,0.1L179.3,284.7z M179.3,262.5l-149.3-0.1l0-5.2l149.3,0.1L179.3,262.5z M179.3,240.3l-149.3-0.1l0-5.2
	l149.3,0.1L179.3,240.3z M179.3,218L29.9,218l0-5.2l149.3,0.1L179.3,218z M179.3,195.8l-149.3-0.1l0-5.2l149.3,0.1L179.3,195.8z
	 M179.3,173.6l-149.3-0.1l0-5.2l149.3,0.1L179.3,173.6z M179.3,151.3l-149.3-0.1l0-5.2l149.3,0.1L179.3,151.3z"/>
<path class="st2" d="M429.5,341.8h45.2v64C456.4,384.6,441.4,363.2,429.5,341.8z M420.6,324.4h54v-89.6h-77.5
	C398.8,264.8,406.7,294.7,420.6,324.4z M474.7,109.9V45.1c-10.8,10.9-30.8,33.5-47.8,64.9H474.7z M397.2,209.6
	c-0.2,2.6-0.2,5.2-0.2,7.8h77.7v-90.2h-56.4C407.4,151.1,399.1,178.8,397.2,209.6z M454.4,41.1c-49.7,6-93.5,31.6-123.3,68.8H407
	C422.4,79.1,441.1,55.6,454.4,41.1z M379.9,208.4c1.9-30.2,9.3-57.4,19.2-81.1h-80.3c-16.6,26.4-26.7,57.2-28.3,90.2h89.1
	C379.7,214.5,379.7,211.4,379.9,208.4z M584.7,208.4c0.2,3,0.2,6.1,0.3,9.1h78c-1.5-33-11.7-63.8-28.3-90.2h-69.2
	C575.4,151,582.9,178.2,584.7,208.4z M379.8,234.8h-89.2c1.5,32.8,11.5,63.4,27.9,89.6h83.2C388.7,294.8,381.3,264.9,379.8,234.8z
	 M330.7,341.8c30.3,38.2,75.1,64.3,126.1,69.7c-19.2-23-34.9-46.3-46.9-69.7H330.7z M567.5,234.8H492v89.6h52
	C558,294.7,565.8,264.8,567.5,234.8z M509.3,409.7c45.8-8.1,85.8-32.9,113.6-67.9h-68.1C543,364.6,527.8,387.3,509.3,409.7z
	 M563,324.4h72.1c16.4-26.3,26.4-56.8,27.9-89.6h-78.2C583.3,264.9,576,294.8,563,324.4z M622.4,109.9c-27.2-34-66-58.3-110.4-66.8
	c13.1,14.6,30.8,37.4,45.6,66.8H622.4z M696.9,226.2c0,121.6-98.5,220.1-220.1,220.1c-121.6,0-220.1-98.5-220.1-220.1
	C256.7,104.6,355.2,6,476.8,6C598.3,6,696.9,104.6,696.9,226.2z M680.6,226.2c0-112.4-91.4-203.8-203.8-203.8
	C364.4,22.4,273,113.8,273,226.2c0,112.4,91.4,203.8,203.8,203.8C589.1,429.9,680.6,338.5,680.6,226.2z M492,47.2v62.8h45.8
	C521.8,80.4,503.1,58.7,492,47.2z M567.4,209.5c-1.9-30.8-10.2-58.5-21-82.2H492v90.2h75.7C567.6,214.8,567.6,212.1,567.4,209.5z
	 M492,341.8v61.6c17.3-20.4,31.7-41,43.1-61.6H492z"/>
<g>
	<circle class="st3" cx="568.3" cy="331.9" r="75.2"/>
</g>
<path class="st4" d="M658.7,385.8c9.5-6.8,22.9-7.5,32.9-0.2l62.6,44.3c12.7,8.7,15.7,26.4,6.7,39.1l0,0c-9,12.7-26.7,15.7-39.4,6.7
	l-62.4-44.4c-10.3-7.1-14.1-19.9-10.8-31.1l-13.9-9.8c-13.7,15.3-32,25.2-51.5,28.5c-22.2,3.8-46.1-0.9-65.9-15
	c-19.8-14.3-32.2-35-36-57.5c-3.8-22.2,1-45.9,15-65.9c14-19.8,35-32.2,57.2-36c22.5-3.8,46.1,0.9,65.9,15
	c20.1,14.2,32.5,35,36.3,57.2c3.4,19.9,0,40.8-10.7,59.2L658.7,385.8z"/>
<path class="st5" d="M625.2,373.7c0.3,0,0.2-0.3,0.5-0.3c0-0.3,0.2-0.5,0.4-0.6c11.3-16,15-35,12-52.9c-3-17.7-12.9-34.4-28.8-45.7
	c-16-11.3-35-15-52.9-12c-17.9,3.1-34.4,12.9-45.7,28.8c-11.3,16-15,35-12,52.7c3.1,17.9,12.9,34.7,28.9,46
	c16,11.3,34.8,15.1,52.7,12C597.5,398.6,614,389.1,625.2,373.7L625.2,373.7z"/>
<polygon class="st6" points="585.6,371.6 564.7,375.2 559.4,344.4 528.6,349.6 525,328.5 555.8,323.2 550.5,292.2 571.4,288.6 
	576.7,319.6 608,314.3 611.6,335.5 580.3,340.8 "/>
</svg>
